<?xml version="1.0" standalone="no"?>
<!DOCTYPE svg PUBLIC "-//W3C//DTD SVG 20010904//EN"
 "http://www.w3.org/TR/2001/REC-SVG-20010904/DTD/svg10.dtd">
<svg version="1.0" xmlns="http://www.w3.org/2000/svg"
 width="250.000000pt" height="250.000000pt" viewBox="0 0 250.000000 250.000000"
 preserveAspectRatio="xMidYMid meet">
<metadata>
Created by potrace 1.11, written by Peter Selinger 2001-2013
</metadata>
<g transform="translate(0.000000,250.000000) scale(0.100000,-0.100000)"
fill="#000000" stroke="none">
<path d="M0 1250 l0 -1250 1250 0 1250 0 0 1250 0 1250 -1250 0 -1250 0 0
-1250z m1575 920 c135 -20 254 -100 304 -204 12 -24 28 -74 36 -112 42 -200
-16 -366 -157 -452 -16 -9 -28 -20 -28 -24 0 -4 27 -21 60 -39 78 -41 153
-122 193 -206 28 -61 31 -79 35 -183 7 -198 -31 -314 -135 -419 -137 -136
-285 -165 -823 -159 -313 3 -315 3 -354 27 -24 15 -45 40 -57 65 -18 39 -19
82 -19 806 0 468 4 778 10 799 12 41 45 79 85 97 37 16 740 19 850 4z"/>
<path d="M970 1675 l0 -205 213 0 c227 1 282 8 338 45 89 58 97 224 16 313
-39 42 -102 52 -344 52 l-223 0 0 -205z"/>
<path d="M970 919 l0 -251 273 4 c289 4 305 7 370 58 52 41 72 95 72 195 0
104 -17 150 -72 192 -57 44 -124 53 -395 53 l-248 0 0 -251z"/>
</g>
</svg>
